<svg xmlns="http://www.w3.org/2000/svg" xmlns:cc="http://web.resource.org/cc/" xmlns:svg="http://www.w3.org/2000/svg" id="svg2064" width="376" height="300" fill-rule="evenodd" preserveAspectRatio="xMidYMid" version="1.0" viewBox="0 0 21000 29700"><metadata id="metadata2219"/><g id="Výchozí" visibility="visible"><desc id="desc2067">Master slide</desc></g><g id="page1" transform="matrix(8.274684,0,0,8.274684,-78002.49,-108836.2)" visibility="visible"><desc id="desc2070">Slide</desc><g id="g2072"><desc id="desc2074">Group</desc><g id="g2076"><desc id="desc2078">Drawing</desc></g><g id="g2084"><desc id="desc2086">Drawing</desc><g id="g2088"><g id="g2090" fill="#e36646" stroke="none"><path id="path2092" d="M 9786,13973 L 9786,14253 L 11845,14492 L 11845,14430 L 9786,13973 z"/></g></g></g><g id="g2096"><desc id="desc2098">Drawing</desc><g id="g2100"><g id="g2102" fill="#f47b20" stroke="none"><path id="path2104" d="M 9786,13973 L 9786,14253 L 11845,14492 L 11845,14430 L 9786,13973 z"/></g></g></g><g id="g2108"><desc id="desc2110">Drawing</desc><g id="g2112"><g id="g2114" fill="#e36646" stroke="none"><path id="path2116" d="M 11490,15476 L 11844,15278 L 11844,15019 L 11471,15435 L 11490,15476 z"/></g></g></g><g id="g2120"><desc id="desc2122">Drawing</desc><g id="g2124"><g id="g2126" fill="#f47b20" stroke="none"><path id="path2128" d="M 11490,15476 L 11844,15278 L 11844,15019 L 11471,15435 L 11490,15476 z"/></g></g></g><g id="g2132"><desc id="desc2134">Drawing</desc><g id="g2136"><g id="g2138" fill="#e36646" stroke="none"><path id="path2140" d="M 10753,15031 L 11844,14863 L 11844,14625 L 10753,14988 L 10753,15031 z"/></g></g></g><g id="g2144"><desc id="desc2146">Drawing</desc><g id="g2148"><g id="g2150" fill="#f47b20" stroke="none"><path id="path2152" d="M 10753,15031 L 11844,14863 L 11844,14625 L 10753,14988 L 10753,15031 z"/></g></g></g><g id="g2156"><desc id="desc2158">Drawing</desc><g id="g2160"><g id="g2162" fill="#f47b20" stroke="none"><path id="path2164" d="M 9454,13517 L 9454,14480 L 9452,14511 L 9446,14540 L 9437,14567 L 9424,14594 L 9408,14618 L 9390,14642 L 9369,14663 L 9346,14682 L 9321,14700 L 9295,14715 L 9267,14728 L 9238,14740 L 9209,14748 L 9179,14755 L 9150,14759 L 9120,14760 L 9091,14759 L 9061,14755 L 9032,14748 L 9004,14740 L 8976,14728 L 8949,14715 L 8924,14700 L 8900,14682 L 8878,14663 L 8858,14642 L 8840,14618 L 8826,14594 L 8813,14567 L 8804,14540 L 8799,14511 L 8797,14480 L 8797,13517 L 8527,13517 L 8527,14501 L 8530,14552 L 8540,14600 L 8555,14645 L 8575,14687 L 8600,14726 L 8630,14762 L 8663,14795 L 8700,14824 L 8740,14850 L 8783,14873 L 8827,14892 L 8874,14908 L 8922,14921 L 8970,14930 L 9019,14935 L 9068,14937 L 9119,14935 L 9170,14930 L 9220,14921 L 9269,14908 L 9316,14892 L 9362,14873 L 9405,14850 L 9446,14824 L 9484,14795 L 9517,14762 L 9547,14726 L 9573,14687 L 9593,14645 L 9608,14600 L 9618,14552 L 9621,14501 L 9621,13517 L 9454,13517 z"/></g></g></g><g id="g2168"><desc id="desc2170">Drawing</desc><g id="g2172"><g id="g2174" fill="#f47b20" stroke="none"><path id="path2176" d="M 9839,14542 L 9839,15930 L 10108,15930 L 10108,15319 L 10680,15319 L 10680,15143 L 10108,15143 L 10108,14717 L 10837,14717 L 10837,14542 L 9839,14542 z"/></g></g></g><g id="g2180"><desc id="desc2182">Drawing</desc><g id="g2184"><g id="g2186" fill="#f47b20" stroke="none"><path id="path2188" d="M 11764,16614 L 11295,15266 L 11295,15256 L 11015,15256 L 11015,15266 L 10526,16614 L 10526,16646 L 10702,16646 L 10702,16635 L 10869,16169 L 11327,16169 L 11482,16635 L 11493,16646 L 11774,16646 L 11764,16614 z M 11264,15993 L 10931,15993 L 11098,15526 L 11264,15993 z"/></g></g></g><g id="g2192"><desc id="desc2194">Drawing</desc><g id="g2196"><g id="g2198" fill="#f47b20" stroke="none"><path id="path2200" d="M 12263,15360 L 12263,14159 L 11992,14159 L 11992,15547 L 12834,15547 L 12834,15360 L 12263,15360 z"/></g></g></g><g id="g2204"><desc id="desc2206">Drawing</desc><g id="g2208"><g id="g2210" fill="#f47b20" stroke="none"><path id="path2212" d="M 9131,13496 L 9038,13496 L 9049,13465 L 9057,13434 L 9065,13403 L 9070,13372 L 9074,13340 L 9077,13309 L 9079,13278 L 9079,13247 L 9278,13247 L 9277,13264 L 9275,13281 L 9271,13298 L 9265,13315 L 9259,13331 L 9251,13348 L 9242,13364 L 9232,13379 L 9210,13410 L 9185,13440 L 9158,13468 L 9131,13496 z"/></g></g></g></g></g></svg>